Abduction_states
version=1
nRows=10
nColumns=41
inDegrees=yes

# SIMM Motion File Header:
name Abduction_states
datacolumns 41
datarows 10
otherdata 1
range 0.00000000 1.34252616
endheader
time	/jointset/ground_thorax/thorax_tilt/value	/jointset/ground_thorax/thorax_tilt/speed	/jointset/ground_thorax/thorax_list/value	/jointset/ground_thorax/thorax_list/speed	/jointset/ground_thorax/thorax_rotation/value	/jointset/ground_thorax/thorax_rotation/speed	/jointset/ground_thorax/thorax_tx/value	/jointset/ground_thorax/thorax_tx/speed	/jointset/ground_thorax/thorax_ty/value	/jointset/ground_thorax/thorax_ty/speed	/jointset/ground_thorax/thorax_tz/value	/jointset/ground_thorax/thorax_tz/speed	/jointset/sternoclavicular/sternoclavicular_r2/value	/jointset/sternoclavicular/sternoclavicular_r2/speed	/jointset/sternoclavicular/sternoclavicular_r3/value	/jointset/sternoclavicular/sternoclavicular_r3/speed	/jointset/unrotscap/unrotscap_r3/value	/jointset/unrotscap/unrotscap_r3/speed	/jointset/unrotscap/unrotscap_r2/value	/jointset/unrotscap/unrotscap_r2/speed	/jointset/acromioclavicular/acromioclavicular_r2/value	/jointset/acromioclavicular/acromioclavicular_r2/speed	/jointset/acromioclavicular/acromioclavicular_r3/value	/jointset/acromioclavicular/acromioclavicular_r3/speed	/jointset/acromioclavicular/acromioclavicular_r1/value	/jointset/acromioclavicular/acromioclavicular_r1/speed	/jointset/unrothum/unrothum_r1/value	/jointset/unrothum/unrothum_r1/speed	/jointset/unrothum/unrothum_r3/value	/jointset/unrothum/unrothum_r3/speed	/jointset/unrothum/unrothum_r2/value	/jointset/unrothum/unrothum_r2/speed	/jointset/shoulder0/elv_angle/value	/jointset/shoulder0/elv_angle/speed	/jointset/shoulder1/shoulder_elv/value	/jointset/shoulder1/shoulder_elv/speed	/jointset/shoulder1/shoulder1_r2/value	/jointset/shoulder1/shoulder1_r2/speed	/jointset/shoulder2/shoulder_rot/value	/jointset/shoulder2/shoulder_rot/speed
      0.00000000	      0.00000000	      0.00000000	      0.00000000	      0.00000000	      0.00000000	      0.00000000	      0.00000000	      0.00000000	      0.00000000	      0.00000000	      0.00000000	      0.00000000	      0.00000000	      0.00000000	     -0.00000000	      0.00000000	      0.00000000	      0.00000000	     -0.00000000	      0.00000000	      0.00000000	      0.00000000	     -0.00000000	      0.00000000	     -0.00000000	      0.00000000	      0.00000000	      0.00000000	      0.00000000	      0.00000000	     -0.00000000	      0.00000000	     30.00000000	      0.00000000	     -0.00000000	      0.00000000	    -30.00000000	      0.00000000	      0.00000000	      0.00000000
      0.01000000	     -0.00000000	     -0.00000000	     -0.00000000	     -0.00000000	      0.00000000	      0.00000000	      0.00000000	      0.00000000	      0.00000000	      0.00000000	     -0.00000000	     -0.00000000	     -0.00065188	     -0.13035654	      0.00027611	      0.05521283	     -0.00027611	     -0.05521283	      0.00065188	      0.13035654	     -0.00013199	     -0.02639434	      0.00106670	      0.21330696	      0.00047949	      0.09588217	     -0.00047949	     -0.09588217	     -0.00106670	     -0.21330696	      0.00013199	      0.02639434	     30.00000000	     -0.00000000	      0.00269376	      0.53866848	    -30.00000000	     -0.00000000	     -0.00000000	     -0.00000000
      0.06000000	     -0.00000000	      0.00000000	     -0.00000000	     -0.00000000	     -0.00000000	     -0.00000000	      0.00000000	      0.00000000	     -0.00000000	     -0.00000000	      0.00000000	      0.00000000	     -0.02343108	     -0.78030081	      0.00992429	      0.33049833	     -0.00992429	     -0.33049833	      0.02343108	      0.78030081	     -0.00474428	     -0.15799382	      0.03834110	      1.27683347	      0.01723445	      0.57394077	     -0.01723445	     -0.57394077	     -0.03834110	     -1.27683347	      0.00474428	      0.15799382	     30.00000000	     -0.00000000	      0.09682357	      3.22441403	    -30.00000000	     -0.00000000	      0.00000000	      0.00000000
      0.31000000	     -0.00000000	     -0.00000000	      0.00000000	      0.00000000	     -0.00000000	     -0.00000000	      0.00000000	      0.00000000	      0.00000000	      0.00000000	      0.00000000	      0.00000000	     -0.62058150	     -3.98418281	      0.26284883	      1.68751047	     -0.26284883	     -1.68751047	      0.62058150	      3.98418281	     -0.12565416	     -0.80670976	      1.01547919	      6.51945753	      0.45646118	      2.93051723	     -0.45646118	     -2.93051723	     -1.01547919	     -6.51945753	      0.12565416	      0.80670976	     30.00000000	      0.00000000	      2.56441066	     16.46372125	    -30.00000000	     -0.00000000	      0.00000000	      0.00000000
      0.78621414	     -0.00000000	     -0.00000000	     -0.00000000	     -0.00000000	      0.00000000	      0.00000000	     -0.00000000	      0.00000000	      0.00000000	      0.00000000	      0.00000000	     -0.00000000	     -3.93170995	     -9.87499775	      1.66528546	      4.18257968	     -1.66528546	     -4.18257968	      3.93170995	      9.87499775	     -0.79608516	     -1.99947078	      6.43359436	     16.15880382	      2.89192146	      7.26343453	     -2.89192146	     -7.26343453	     -6.43359436	    -16.15880382	      0.79608516	      1.99947078	     30.00000000	      0.00000000	     16.24688921	     40.80616226	    -30.00000000	     -0.00000000	      0.00000000	      0.00000000
      0.92674721	     -0.00000000	     -0.00000000	     -0.00000000	     -0.00000000	      0.00000000	      0.00000000	     -0.00000000	     -0.00000000	      0.00000000	      0.00000000	     -0.00000000	     -0.00000000	     -5.43808967	    -11.55879590	      2.30331630	      4.89575654	     -2.30331630	     -4.89575654	      5.43808967	     11.55879590	     -1.10109406	     -2.34040303	      8.89853612	     18.91406157	      3.99992074	      8.50193180	     -3.99992074	     -8.50193180	     -8.89853612	    -18.91406157	      1.10109406	      2.34040303	     30.00000000	      0.00000000	     22.47165772	     47.76407176	    -30.00000000	     -0.00000000	      0.00000000	      0.00000000
      1.02597242	     -0.00000000	     -0.00000000	     -0.00000000	     -0.00000000	      0.00000000	      0.00000000	     -0.00000000	     -0.00000000	      0.00000000	      0.00000000	     -0.00000000	     -0.00000000	     -6.64332544	    -12.73192547	      2.81379689	      5.39263847	     -2.81379689	     -5.39263847	      6.64332544	     12.73192547	     -1.34512791	     -2.57793607	     10.87070552	     20.83369448	      4.88641726	      9.36481299	     -4.88641726	     -9.36481299	    -10.87070552	    -20.83369448	      1.34512791	      2.57793607	     30.00000000	      0.00000000	     27.45201799	     52.61176054	    -30.00000000	     -0.00000000	      0.00000000	      0.00000000
      1.13883151	     -0.00000000	     -0.00000000	     -0.00000000	     -0.00000000	      0.00000000	      0.00000000	     -0.00000000	     -0.00000000	      0.00000000	      0.00000000	     -0.00000000	     -0.00000000	     -8.15477167	    -14.04971192	      3.45397368	      5.95079017	     -3.45397368	     -5.95079017	      8.15477167	     14.04971192	     -1.65116267	     -2.84475897	     13.34393780	     22.99003448	      5.99814316	     10.33409479	     -5.99814316	    -10.33409479	    -13.34393780	    -22.99003448	      1.65116267	      2.84475897	     30.00000000	      0.00000000	     33.69772274	     58.05721064	    -30.00000000	     -0.00000000	      0.00000000	      0.00000000
      1.24463621	     -0.00000000	     -0.00000000	     -0.00000000	     -0.00000000	      0.00000000	      0.00000000	     -0.00000000	     -0.00000000	      0.00000000	      0.00000000	     -0.00000000	     -0.00000000	     -9.70588158	    -15.26720372	      4.11095011	      6.46646183	     -4.11095011	     -6.46646183	      9.70588158	     15.26720372	     -1.96522846	     -3.09127440	     15.88207314	     24.98225886	      7.13904320	     11.22960609	     -7.13904320	    -11.22960609	    -15.88207314	    -24.98225886	      1.96522846	      3.09127440	     30.00000000	      0.00000000	     40.10732853	     63.08821616	    -30.00000000	     -0.00000000	      0.00000000	      0.00000000
      1.34252616	     -0.00000000	     -0.00000000	     -0.00000000	     -0.00000000	      0.00000000	      0.00000000	     -0.00000000	     -0.00000000	      0.00000000	      0.00000000	     -0.00000000	     -0.00000000	    -11.25457764	    -16.36776332	      4.76690415	      6.93260656	     -4.76690415	     -6.93260656	     11.25457764	     16.36776332	     -2.27880549	     -3.31411361	     18.41625861	     26.78314297	      8.27816775	     12.03910931	     -8.27816775	    -12.03910931	    -18.41625861	    -26.78314297	      2.27880549	      3.31411361	     30.00000000	      0.00000000	     46.50695961	     67.63602614	    -30.00000000	     -0.00000000	      0.00000000	      0.00000000
